<mxfile host="app.diagrams.net" agent="Mozilla/5.0 (Windows NT 10.0; Win64; x64) AppleWebKit/537.36 (KHTML, like Gecko) Chrome/133.0.0.0 Safari/537.36" version="26.1.0">
  <diagram id="C5RBs43oDa-KdzZeNtuy" name="Page-1">
    <mxGraphModel dx="1193" dy="683" grid="1" gridSize="10" guides="1" tooltips="1" connect="1" arrows="1" fold="1" page="1" pageScale="1" pageWidth="827" pageHeight="1169" math="0" shadow="0">
      <root>
        <mxCell id="WIyWlLk6GJQsqaUBKTNV-0" />
        <mxCell id="WIyWlLk6GJQsqaUBKTNV-1" parent="WIyWlLk6GJQsqaUBKTNV-0" />
        <mxCell id="NZkv9FwtArW5ORm5hf6q-1" value="" style="swimlane;startSize=0;" vertex="1" parent="WIyWlLk6GJQsqaUBKTNV-1">
          <mxGeometry x="314" y="8" width="200" height="180" as="geometry" />
        </mxCell>
        <mxCell id="NZkv9FwtArW5ORm5hf6q-4" value="&lt;div&gt;&lt;span style=&quot;background-color: transparent; color: light-dark(rgb(0, 0, 0), rgb(255, 255, 255));&quot;&gt;React js&lt;/span&gt;&lt;/div&gt;&lt;div&gt;https://512server.ru:1000/&lt;/div&gt;&lt;div&gt;Клиент взаимодействия&amp;nbsp;&lt;/div&gt;&lt;div&gt;с пользователем&lt;/div&gt;&lt;div&gt;&lt;br&gt;&lt;/div&gt;&lt;div&gt;Docker&lt;/div&gt;" style="text;html=1;align=center;verticalAlign=middle;resizable=0;points=[];autosize=1;strokeColor=none;fillColor=none;" vertex="1" parent="NZkv9FwtArW5ORm5hf6q-1">
          <mxGeometry x="20" y="40" width="160" height="100" as="geometry" />
        </mxCell>
        <mxCell id="NZkv9FwtArW5ORm5hf6q-5" value="" style="endArrow=none;dashed=1;html=1;dashPattern=1 3;strokeWidth=2;rounded=0;" edge="1" parent="WIyWlLk6GJQsqaUBKTNV-1">
          <mxGeometry width="50" height="50" relative="1" as="geometry">
            <mxPoint x="10" y="268" as="sourcePoint" />
            <mxPoint x="820" y="268" as="targetPoint" />
          </mxGeometry>
        </mxCell>
        <mxCell id="NZkv9FwtArW5ORm5hf6q-6" value="" style="swimlane;startSize=0;" vertex="1" parent="WIyWlLk6GJQsqaUBKTNV-1">
          <mxGeometry x="271" y="308" width="200" height="200" as="geometry" />
        </mxCell>
        <mxCell id="NZkv9FwtArW5ORm5hf6q-11" value="Java&lt;div&gt;&lt;div&gt;localhost:2222&lt;/div&gt;&lt;div&gt;Работа с базой PostgreSql&lt;/div&gt;&lt;/div&gt;&lt;div&gt;&lt;br&gt;&lt;/div&gt;&lt;div&gt;Docker&lt;/div&gt;" style="text;html=1;align=center;verticalAlign=middle;resizable=0;points=[];autosize=1;strokeColor=none;fillColor=none;" vertex="1" parent="NZkv9FwtArW5ORm5hf6q-6">
          <mxGeometry x="15" y="55" width="170" height="90" as="geometry" />
        </mxCell>
        <mxCell id="NZkv9FwtArW5ORm5hf6q-7" value="Backend" style="text;html=1;align=center;verticalAlign=middle;resizable=0;points=[];autosize=1;strokeColor=none;fillColor=none;" vertex="1" parent="WIyWlLk6GJQsqaUBKTNV-1">
          <mxGeometry x="379" y="271" width="70" height="30" as="geometry" />
        </mxCell>
        <mxCell id="NZkv9FwtArW5ORm5hf6q-8" value="" style="swimlane;startSize=0;" vertex="1" parent="WIyWlLk6GJQsqaUBKTNV-1">
          <mxGeometry x="626" y="308" width="200" height="200" as="geometry" />
        </mxCell>
        <mxCell id="NZkv9FwtArW5ORm5hf6q-12" value="Python&lt;div&gt;&lt;div&gt;localhost:1111&lt;/div&gt;&lt;div&gt;Основная логика&lt;/div&gt;&lt;div&gt;Общение с фронтендом и&amp;nbsp;&lt;/div&gt;&lt;div&gt;Java приложением&lt;/div&gt;&lt;/div&gt;&lt;div&gt;&lt;br&gt;&lt;/div&gt;&lt;div&gt;Docker&lt;/div&gt;" style="text;html=1;align=center;verticalAlign=middle;resizable=0;points=[];autosize=1;strokeColor=none;fillColor=none;" vertex="1" parent="NZkv9FwtArW5ORm5hf6q-8">
          <mxGeometry x="23" y="45" width="170" height="110" as="geometry" />
        </mxCell>
        <mxCell id="NZkv9FwtArW5ORm5hf6q-15" value="" style="endArrow=classic;startArrow=classic;html=1;rounded=0;entryX=0.5;entryY=1;entryDx=0;entryDy=0;exitX=0.5;exitY=0;exitDx=0;exitDy=0;" edge="1" parent="WIyWlLk6GJQsqaUBKTNV-1" source="NZkv9FwtArW5ORm5hf6q-8" target="NZkv9FwtArW5ORm5hf6q-1">
          <mxGeometry width="50" height="50" relative="1" as="geometry">
            <mxPoint x="657.9000000000001" y="285" as="sourcePoint" />
            <mxPoint x="360" y="238" as="targetPoint" />
          </mxGeometry>
        </mxCell>
        <mxCell id="NZkv9FwtArW5ORm5hf6q-10" value="RestApi&lt;div&gt;Пересылка json&lt;/div&gt;" style="text;html=1;align=center;verticalAlign=middle;resizable=0;points=[];autosize=1;strokeColor=default;fillColor=default;" vertex="1" parent="WIyWlLk6GJQsqaUBKTNV-1">
          <mxGeometry x="516" y="218" width="110" height="40" as="geometry" />
        </mxCell>
        <mxCell id="NZkv9FwtArW5ORm5hf6q-16" value="" style="endArrow=classic;startArrow=classic;html=1;rounded=0;entryX=0;entryY=0.5;entryDx=0;entryDy=0;exitX=1;exitY=0.5;exitDx=0;exitDy=0;" edge="1" parent="WIyWlLk6GJQsqaUBKTNV-1" source="NZkv9FwtArW5ORm5hf6q-6" target="NZkv9FwtArW5ORm5hf6q-8">
          <mxGeometry width="50" height="50" relative="1" as="geometry">
            <mxPoint x="501" y="468" as="sourcePoint" />
            <mxPoint x="520" y="368" as="targetPoint" />
          </mxGeometry>
        </mxCell>
        <mxCell id="NZkv9FwtArW5ORm5hf6q-21" value="" style="swimlane;startSize=0;" vertex="1" parent="WIyWlLk6GJQsqaUBKTNV-1">
          <mxGeometry x="1" y="308" width="200" height="200" as="geometry" />
        </mxCell>
        <mxCell id="NZkv9FwtArW5ORm5hf6q-22" value="PostgreSQL&lt;div&gt;localhost:3333&lt;/div&gt;&lt;div&gt;&lt;div&gt;Хранение паролей и данных&amp;nbsp;&lt;/div&gt;&lt;div&gt;пользователя&lt;/div&gt;&lt;/div&gt;&lt;div&gt;&lt;br&gt;&lt;/div&gt;&lt;div&gt;Docker&lt;/div&gt;" style="text;html=1;align=center;verticalAlign=middle;resizable=0;points=[];autosize=1;strokeColor=none;fillColor=none;" vertex="1" parent="NZkv9FwtArW5ORm5hf6q-21">
          <mxGeometry x="5" y="50" width="190" height="100" as="geometry" />
        </mxCell>
        <mxCell id="NZkv9FwtArW5ORm5hf6q-24" value="" style="endArrow=classic;startArrow=classic;html=1;rounded=0;exitX=1;exitY=0.5;exitDx=0;exitDy=0;entryX=0;entryY=0.5;entryDx=0;entryDy=0;" edge="1" parent="WIyWlLk6GJQsqaUBKTNV-1" source="NZkv9FwtArW5ORm5hf6q-21" target="NZkv9FwtArW5ORm5hf6q-6">
          <mxGeometry width="50" height="50" relative="1" as="geometry">
            <mxPoint x="231" y="388" as="sourcePoint" />
            <mxPoint x="281" y="338" as="targetPoint" />
          </mxGeometry>
        </mxCell>
        <mxCell id="NZkv9FwtArW5ORm5hf6q-27" value="Frontend" style="text;html=1;align=center;verticalAlign=middle;resizable=0;points=[];autosize=1;strokeColor=none;fillColor=none;" vertex="1" parent="WIyWlLk6GJQsqaUBKTNV-1">
          <mxGeometry x="379" y="228" width="70" height="30" as="geometry" />
        </mxCell>
        <mxCell id="NZkv9FwtArW5ORm5hf6q-17" value="RestApi&lt;div&gt;Пересылка json&lt;/div&gt;" style="text;html=1;align=center;verticalAlign=middle;resizable=0;points=[];autosize=1;strokeColor=default;fillColor=default;" vertex="1" parent="WIyWlLk6GJQsqaUBKTNV-1">
          <mxGeometry x="494" y="388" width="110" height="40" as="geometry" />
        </mxCell>
      </root>
    </mxGraphModel>
  </diagram>
</mxfile>
